<svg xmlns="http://www.w3.org/2000/svg" xmlns:xlink="http://www.w3.org/1999/xlink" id="svg" version="1.1" width="400" height="71.35298563869992" viewBox="0, 0, 400,71.35298563869992"><script xmlns="" src="chrome-extension://hoklmmgfnpapgjgcpechhaamimifchmp/frame_ant/frame_ant.js"/><g id="svgg"><path id="path0" d="M92.667 2.453 C 92.438 2.495,92.179 2.597,92.092 2.681 C 92.005 2.765,91.686 2.833,91.383 2.833 C 91.081 2.833,90.833 2.908,90.833 3.000 C 90.833 3.092,90.571 3.167,90.250 3.167 C 89.929 3.167,89.667 3.242,89.667 3.333 C 89.667 3.425,89.404 3.500,89.083 3.500 C 88.763 3.500,88.500 3.568,88.500 3.650 C 88.500 3.733,88.050 3.853,87.500 3.917 C 86.950 3.981,86.458 4.100,86.407 4.183 C 86.355 4.266,86.056 4.333,85.740 4.333 C 85.425 4.333,85.167 4.408,85.167 4.500 C 85.167 4.592,84.867 4.667,84.500 4.667 C 84.133 4.667,83.833 4.742,83.833 4.833 C 83.833 4.925,83.646 5.000,83.417 5.000 C 83.188 5.000,83.000 5.075,83.000 5.167 C 83.000 5.258,82.737 5.333,82.417 5.333 C 82.096 5.333,81.833 5.400,81.833 5.480 C 81.833 5.561,81.271 5.680,80.583 5.745 C 79.896 5.809,79.333 5.930,79.333 6.014 C 79.333 6.098,79.146 6.167,78.917 6.167 C 78.688 6.167,78.500 6.242,78.500 6.333 C 78.500 6.425,78.237 6.500,77.917 6.500 C 77.596 6.500,77.333 6.575,77.333 6.667 C 77.333 6.758,77.033 6.833,76.667 6.833 C 76.300 6.833,76.000 6.901,76.000 6.983 C 76.000 7.065,75.475 7.186,74.833 7.250 C 74.192 7.314,73.667 7.435,73.667 7.517 C 73.667 7.599,73.442 7.667,73.167 7.667 C 72.892 7.667,72.667 7.742,72.667 7.833 C 72.667 7.925,72.404 8.000,72.083 8.000 C 71.762 8.000,71.500 8.075,71.500 8.167 C 71.500 8.258,71.237 8.333,70.917 8.333 C 70.596 8.333,70.333 8.408,70.333 8.500 C 70.333 8.592,70.071 8.667,69.750 8.667 C 69.429 8.667,69.167 8.736,69.167 8.820 C 69.167 8.904,68.679 9.026,68.083 9.089 C 67.487 9.153,67.000 9.272,67.000 9.353 C 67.000 9.434,66.737 9.500,66.417 9.500 C 66.096 9.500,65.833 9.575,65.833 9.667 C 65.833 9.758,65.533 9.833,65.167 9.833 C 64.800 9.833,64.500 9.908,64.500 10.000 C 64.500 10.092,64.313 10.167,64.083 10.167 C 63.854 10.167,63.667 10.234,63.667 10.316 C 63.667 10.399,63.141 10.519,62.499 10.583 C 61.857 10.648,61.290 10.768,61.240 10.850 C 61.189 10.933,60.889 11.000,60.573 11.000 C 60.258 11.000,60.000 11.075,60.000 11.167 C 60.000 11.258,59.737 11.333,59.417 11.333 C 59.096 11.333,58.833 11.408,58.833 11.500 C 58.833 11.592,58.608 11.667,58.333 11.667 C 58.058 11.667,57.833 11.734,57.833 11.816 C 57.833 11.899,57.308 12.019,56.667 12.083 C 56.025 12.148,55.500 12.268,55.500 12.350 C 55.500 12.433,55.237 12.500,54.917 12.500 C 54.596 12.500,54.333 12.575,54.333 12.667 C 54.333 12.758,54.108 12.833,53.833 12.833 C 53.558 12.833,53.333 12.908,53.333 13.000 C 53.333 13.092,53.071 13.167,52.750 13.167 C 52.429 13.167,52.167 13.242,52.167 13.333 C 52.167 13.425,51.904 13.500,51.583 13.500 C 51.262 13.500,51.000 13.564,51.000 13.643 C 51.000 13.722,50.531 13.835,49.958 13.895 C 49.385 13.954,48.892 14.078,48.861 14.168 C 48.831 14.259,48.549 14.333,48.236 14.333 C 47.923 14.333,47.667 14.408,47.667 14.500 C 47.667 14.592,47.367 14.667,47.000 14.667 C 46.633 14.667,46.333 14.742,46.333 14.833 C 46.333 14.925,46.071 15.000,45.750 15.000 C 45.429 15.000,45.167 15.071,45.167 15.158 C 45.167 15.246,44.717 15.368,44.167 15.430 C 43.617 15.492,43.167 15.608,43.167 15.688 C 43.167 15.768,42.867 15.833,42.500 15.833 C 42.133 15.833,41.833 15.908,41.833 16.000 C 41.833 16.092,41.571 16.167,41.250 16.167 C 40.929 16.167,40.667 16.242,40.667 16.333 C 40.667 16.425,40.404 16.500,40.083 16.500 C 39.762 16.500,39.500 16.568,39.500 16.650 C 39.500 16.733,39.050 16.853,38.500 16.917 C 37.950 16.981,37.458 17.100,37.407 17.183 C 37.355 17.266,37.056 17.333,36.740 17.333 C 36.425 17.333,36.167 17.408,36.167 17.500 C 36.167 17.592,35.904 17.667,35.583 17.667 C 35.262 17.667,35.000 17.742,35.000 17.833 C 35.000 17.925,34.775 18.000,34.500 18.000 C 34.225 18.000,34.000 18.075,34.000 18.167 C 34.000 18.258,33.737 18.333,33.417 18.333 C 33.096 18.333,32.833 18.402,32.833 18.486 C 32.833 18.570,32.271 18.691,31.583 18.755 C 30.896 18.820,30.333 18.939,30.333 19.020 C 30.333 19.100,30.146 19.167,29.917 19.167 C 29.688 19.167,29.500 19.242,29.500 19.333 C 29.500 19.425,29.238 19.500,28.917 19.500 C 28.596 19.500,28.333 19.575,28.333 19.667 C 28.333 19.758,28.033 19.833,27.667 19.833 C 27.300 19.833,27.000 19.899,27.000 19.978 C 27.000 20.058,26.550 20.175,26.000 20.237 C 25.450 20.299,25.000 20.421,25.000 20.508 C 25.000 20.595,24.700 20.667,24.333 20.667 C 23.967 20.667,23.667 20.742,23.667 20.833 C 23.667 20.925,23.404 21.000,23.083 21.000 C 22.762 21.000,22.500 21.075,22.500 21.167 C 22.500 21.258,22.238 21.333,21.917 21.333 C 21.596 21.333,21.333 21.408,21.333 21.500 C 21.333 21.592,21.090 21.670,20.792 21.674 C 20.494 21.678,19.950 21.789,19.583 21.921 C 19.217 22.054,18.710 22.163,18.458 22.164 C 18.206 22.166,18.000 22.242,18.000 22.333 C 18.000 22.425,17.737 22.500,17.417 22.500 C 17.096 22.500,16.833 22.575,16.833 22.667 C 16.833 22.758,16.533 22.833,16.167 22.833 C 15.800 22.833,15.500 22.908,15.500 23.000 C 15.500 23.092,15.313 23.167,15.083 23.167 C 14.854 23.167,14.667 23.234,14.667 23.316 C 14.667 23.399,14.141 23.519,13.499 23.583 C 12.857 23.648,12.290 23.768,12.240 23.850 C 12.189 23.933,11.889 24.000,11.573 24.000 C 11.258 24.000,11.000 24.075,11.000 24.167 C 11.000 24.258,10.813 24.333,10.583 24.333 C 10.354 24.333,10.167 24.408,10.167 24.500 C 10.167 24.592,9.904 24.667,9.583 24.667 C 9.262 24.667,9.000 24.733,9.000 24.814 C 9.000 24.895,8.438 25.014,7.750 25.078 C 7.063 25.142,6.500 25.264,6.500 25.348 C 6.500 25.431,6.313 25.500,6.083 25.500 C 5.854 25.500,5.667 25.575,5.667 25.667 C 5.667 25.758,5.367 25.833,5.000 25.833 C 4.633 25.833,4.333 25.908,4.333 26.000 C 4.333 26.092,4.071 26.167,3.750 26.167 C 3.429 26.167,3.167 26.242,3.167 26.333 C 3.167 26.425,2.904 26.500,2.583 26.500 C 2.262 26.500,2.000 26.570,2.000 26.656 C 2.000 26.742,1.756 26.836,1.458 26.864 C 0.655 26.942,0.538 28.833,1.337 28.833 C 1.518 28.833,1.667 28.908,1.667 29.000 C 1.667 29.092,1.854 29.167,2.083 29.167 C 2.313 29.167,2.500 29.242,2.500 29.333 C 2.500 29.425,2.650 29.500,2.833 29.500 C 3.017 29.500,3.167 29.565,3.167 29.645 C 3.167 29.724,3.484 29.832,3.871 29.884 C 4.259 29.936,4.603 30.058,4.635 30.156 C 4.668 30.253,4.913 30.333,5.181 30.333 C 5.448 30.333,5.667 30.408,5.667 30.500 C 5.667 30.592,5.779 30.667,5.917 30.667 C 6.054 30.667,6.167 30.742,6.167 30.833 C 6.167 30.925,6.392 31.000,6.667 31.000 C 6.942 31.000,7.167 31.067,7.167 31.149 C 7.167 31.230,7.617 31.432,8.167 31.597 C 8.717 31.762,9.167 31.957,9.167 32.032 C 9.167 32.106,9.392 32.167,9.667 32.167 C 9.942 32.167,10.167 32.242,10.167 32.333 C 10.167 32.425,10.354 32.500,10.583 32.500 C 10.813 32.500,11.000 32.575,11.000 32.667 C 11.000 32.758,11.150 32.833,11.333 32.833 C 11.517 32.833,11.667 32.900,11.667 32.981 C 11.667 33.062,12.004 33.179,12.417 33.241 C 12.829 33.303,13.167 33.424,13.167 33.510 C 13.167 33.596,13.354 33.667,13.583 33.667 C 13.813 33.667,14.000 33.742,14.000 33.833 C 14.000 33.925,14.150 34.000,14.333 34.000 C 14.517 34.000,14.667 34.075,14.667 34.167 C 14.667 34.258,14.808 34.333,14.981 34.333 C 15.154 34.333,15.510 34.445,15.773 34.582 C 16.035 34.719,16.456 34.832,16.708 34.832 C 16.960 34.833,17.167 34.908,17.167 35.000 C 17.167 35.092,17.279 35.167,17.417 35.167 C 17.554 35.167,17.667 35.242,17.667 35.333 C 17.667 35.425,17.892 35.500,18.167 35.500 C 18.442 35.500,18.667 35.575,18.667 35.667 C 18.667 35.758,18.779 35.833,18.917 35.833 C 19.054 35.833,19.167 35.908,19.167 36.000 C 19.167 36.092,19.385 36.167,19.653 36.167 C 19.920 36.167,20.166 36.247,20.198 36.344 C 20.231 36.442,20.574 36.564,20.962 36.616 C 21.350 36.668,21.667 36.776,21.667 36.855 C 21.667 36.935,21.779 37.000,21.917 37.000 C 22.054 37.000,22.167 37.075,22.167 37.167 C 22.167 37.258,22.392 37.333,22.667 37.333 C 22.942 37.333,23.167 37.390,23.168 37.458 C 23.170 37.618,23.984 38.000,24.325 38.001 C 24.467 38.002,24.798 38.114,25.061 38.251 C 25.323 38.388,25.680 38.500,25.852 38.500 C 26.025 38.500,26.167 38.575,26.167 38.667 C 26.167 38.758,26.354 38.833,26.583 38.833 C 26.813 38.833,27.000 38.908,27.000 39.000 C 27.000 39.092,27.150 39.167,27.333 39.167 C 27.517 39.167,27.667 39.233,27.667 39.314 C 27.667 39.396,28.004 39.513,28.417 39.575 C 28.829 39.636,29.167 39.757,29.167 39.844 C 29.167 39.930,29.392 40.000,29.667 40.000 C 29.942 40.000,30.167 40.075,30.167 40.167 C 30.167 40.258,30.279 40.333,30.417 40.333 C 30.554 40.333,30.667 40.408,30.667 40.500 C 30.667 40.592,30.892 40.667,31.167 40.667 C 31.442 40.667,31.667 40.742,31.667 40.833 C 31.667 40.925,31.779 41.000,31.917 41.000 C 32.072 41.000,32.167 41.157,32.167 41.417 C 32.167 41.646,32.242 41.833,32.333 41.833 C 32.425 41.833,32.500 41.983,32.500 42.167 C 32.500 42.350,32.575 42.500,32.667 42.500 C 32.758 42.500,32.833 42.688,32.833 42.917 C 32.833 43.146,32.904 43.333,32.990 43.333 C 33.076 43.333,33.197 43.671,33.259 44.083 C 33.321 44.496,33.438 44.833,33.519 44.833 C 33.600 44.833,33.667 44.983,33.667 45.167 C 33.667 45.350,33.742 45.500,33.833 45.500 C 33.925 45.500,34.000 45.688,34.000 45.917 C 34.000 46.146,34.075 46.333,34.167 46.333 C 34.258 46.333,34.333 46.483,34.333 46.667 C 34.333 46.850,34.408 47.000,34.500 47.000 C 34.592 47.000,34.667 47.188,34.667 47.417 C 34.667 47.646,34.737 47.833,34.823 47.833 C 34.909 47.833,35.030 48.171,35.092 48.583 C 35.154 48.996,35.271 49.333,35.352 49.333 C 35.434 49.333,35.500 49.558,35.500 49.833 C 35.500 50.108,35.575 50.333,35.667 50.333 C 35.758 50.333,35.833 50.483,35.833 50.667 C 35.833 50.850,35.908 51.000,36.000 51.000 C 36.092 51.000,36.167 51.188,36.167 51.417 C 36.167 51.646,36.237 51.833,36.323 51.833 C 36.409 51.833,36.530 52.171,36.592 52.583 C 36.654 52.996,36.771 53.333,36.852 53.333 C 36.934 53.333,37.000 53.483,37.000 53.667 C 37.000 53.850,37.075 54.000,37.167 54.000 C 37.258 54.000,37.333 54.188,37.333 54.417 C 37.333 54.646,37.408 54.833,37.500 54.833 C 37.592 54.833,37.667 54.983,37.667 55.167 C 37.667 55.350,37.742 55.500,37.833 55.500 C 37.925 55.500,38.000 55.669,38.001 55.875 C 38.002 56.081,38.114 56.465,38.251 56.727 C 38.388 56.990,38.500 57.346,38.500 57.519 C 38.500 57.692,38.575 57.833,38.667 57.833 C 38.758 57.833,38.833 57.983,38.833 58.167 C 38.833 58.350,38.908 58.500,39.000 58.500 C 39.092 58.500,39.167 58.688,39.167 58.917 C 39.167 59.146,39.242 59.333,39.333 59.333 C 39.425 59.333,39.500 59.483,39.500 59.667 C 39.500 59.850,39.566 60.000,39.648 60.000 C 39.729 60.000,39.846 60.337,39.908 60.750 C 39.970 61.162,40.091 61.500,40.177 61.500 C 40.263 61.500,40.333 61.688,40.333 61.917 C 40.333 62.146,40.408 62.333,40.500 62.333 C 40.592 62.333,40.667 62.483,40.667 62.667 C 40.667 62.850,40.742 63.000,40.833 63.000 C 40.925 63.000,41.000 63.225,41.000 63.500 C 41.000 63.775,41.075 64.000,41.167 64.000 C 41.258 64.000,41.334 64.169,41.334 64.375 C 41.335 64.581,41.447 64.965,41.584 65.227 C 41.721 65.490,41.833 65.846,41.833 66.019 C 41.833 66.192,41.908 66.333,42.000 66.333 C 42.092 66.333,42.167 66.483,42.167 66.667 C 42.167 66.850,42.242 67.000,42.333 67.000 C 42.425 67.000,42.500 67.188,42.500 67.417 C 42.500 67.646,42.575 67.833,42.667 67.833 C 42.758 67.833,42.833 67.983,42.833 68.167 C 42.833 68.350,42.899 68.500,42.979 68.500 C 43.059 68.500,43.174 68.812,43.235 69.194 C 43.462 70.615,45.833 71.045,45.833 69.666 C 45.833 69.550,46.021 69.281,46.250 69.069 C 46.479 68.856,46.667 68.597,46.667 68.491 C 46.667 68.386,46.892 68.090,47.167 67.833 C 47.442 67.576,47.667 67.293,47.667 67.204 C 47.667 67.114,47.779 66.947,47.917 66.833 C 48.054 66.719,48.167 66.513,48.167 66.374 C 48.167 66.116,48.772 65.500,49.026 65.500 C 49.103 65.500,49.167 65.382,49.167 65.238 C 49.167 65.094,49.260 64.872,49.375 64.744 C 49.831 64.235,50.000 64.009,50.000 63.907 C 50.000 63.848,50.225 63.590,50.500 63.333 C 50.775 63.076,51.000 62.757,51.000 62.623 C 51.000 62.489,51.188 62.239,51.417 62.067 C 51.646 61.895,51.833 61.639,51.833 61.497 C 51.833 61.356,51.983 61.132,52.167 61.000 C 52.350 60.868,52.500 60.682,52.500 60.587 C 52.500 60.491,52.688 60.211,52.917 59.964 C 53.146 59.717,53.333 59.466,53.333 59.407 C 53.333 59.349,53.546 59.102,53.805 58.859 C 54.065 58.616,54.328 58.215,54.389 57.969 C 54.450 57.723,54.651 57.475,54.834 57.417 C 55.017 57.358,55.167 57.182,55.167 57.026 C 55.167 56.869,55.317 56.632,55.500 56.500 C 55.683 56.368,55.833 56.167,55.833 56.054 C 55.833 55.941,56.021 55.661,56.250 55.432 C 56.479 55.203,56.667 54.932,56.667 54.830 C 56.667 54.728,56.892 54.456,57.167 54.224 C 57.442 53.993,57.667 53.701,57.667 53.576 C 57.667 53.451,57.854 53.161,58.083 52.932 C 58.313 52.703,58.500 52.471,58.500 52.417 C 58.500 52.362,58.688 52.131,58.917 51.902 C 59.146 51.672,59.333 51.392,59.333 51.279 C 59.333 51.166,59.483 50.965,59.667 50.833 C 59.850 50.701,60.000 50.490,60.000 50.363 C 60.000 50.237,60.225 49.924,60.500 49.667 C 60.775 49.410,61.000 49.121,61.000 49.024 C 61.000 48.927,61.188 48.661,61.417 48.432 C 61.646 48.203,61.833 47.971,61.833 47.917 C 61.833 47.862,62.021 47.631,62.250 47.402 C 62.479 47.172,62.667 46.843,62.667 46.670 C 62.667 46.497,62.817 46.308,63.000 46.250 C 63.183 46.192,63.333 46.033,63.333 45.898 C 63.333 45.762,63.521 45.464,63.750 45.235 C 63.979 45.006,64.167 44.739,64.167 44.643 C 64.167 44.546,64.392 44.257,64.667 44.000 C 64.942 43.743,65.167 43.443,65.167 43.332 C 65.167 43.222,65.354 42.984,65.583 42.804 C 65.813 42.623,66.001 42.350,66.002 42.196 C 66.002 42.042,66.227 41.739,66.502 41.523 C 66.776 41.306,67.000 41.057,67.000 40.969 C 67.000 40.881,67.112 40.697,67.250 40.560 C 67.387 40.422,67.500 40.165,67.500 39.988 C 67.500 39.811,67.564 39.667,67.641 39.667 C 67.875 39.667,68.500 39.060,68.500 38.833 C 68.500 38.717,68.688 38.448,68.917 38.235 C 69.146 38.023,69.333 37.763,69.333 37.658 C 69.333 37.553,69.558 37.257,69.833 37.000 C 70.108 36.743,70.333 36.460,70.333 36.370 C 70.333 36.281,70.446 36.114,70.583 36.000 C 70.721 35.886,70.833 35.679,70.833 35.541 C 70.833 35.283,71.439 34.667,71.692 34.667 C 71.770 34.667,71.833 34.549,71.833 34.405 C 71.833 34.261,71.927 34.038,72.042 33.911 C 72.498 33.402,72.667 33.176,72.667 33.074 C 72.667 33.015,72.892 32.757,73.167 32.500 C 73.442 32.243,73.667 31.947,73.667 31.842 C 73.667 31.737,73.854 31.477,74.083 31.265 C 74.313 31.052,74.500 30.772,74.500 30.643 C 74.500 30.513,74.650 30.299,74.833 30.167 C 75.017 30.035,75.167 29.863,75.167 29.785 C 75.167 29.707,75.260 29.538,75.375 29.411 C 75.831 28.902,76.000 28.676,76.000 28.574 C 76.000 28.515,76.212 28.268,76.472 28.025 C 76.732 27.782,76.994 27.382,77.056 27.136 C 77.117 26.890,77.317 26.641,77.500 26.583 C 77.684 26.525,77.833 26.349,77.833 26.192 C 77.833 26.035,77.983 25.799,78.167 25.667 C 78.350 25.535,78.500 25.348,78.500 25.253 C 78.500 25.158,78.688 24.878,78.917 24.631 C 79.146 24.383,79.334 24.084,79.334 23.966 C 79.334 23.847,79.559 23.600,79.833 23.417 C 80.108 23.233,80.333 22.955,80.333 22.799 C 80.333 22.643,80.521 22.328,80.750 22.098 C 80.979 21.869,81.167 21.620,81.167 21.544 C 81.167 21.469,81.317 21.299,81.500 21.167 C 81.683 21.035,81.833 20.803,81.833 20.653 C 81.833 20.503,82.021 20.239,82.250 20.067 C 82.479 19.895,82.667 19.641,82.668 19.502 C 82.669 19.363,82.894 19.073,83.168 18.856 C 83.442 18.640,83.667 18.362,83.667 18.239 C 83.667 18.116,83.854 17.828,84.083 17.598 C 84.313 17.369,84.500 17.137,84.500 17.083 C 84.500 17.029,84.688 16.797,84.917 16.568 C 85.146 16.339,85.333 16.010,85.333 15.837 C 85.333 15.664,85.483 15.475,85.667 15.417 C 85.850 15.358,86.000 15.196,86.000 15.056 C 86.000 14.915,86.225 14.590,86.500 14.333 C 86.775 14.076,87.000 13.787,87.000 13.691 C 87.000 13.594,87.188 13.328,87.417 13.098 C 87.646 12.869,87.833 12.595,87.833 12.490 C 87.833 12.384,88.021 12.150,88.250 11.970 C 88.479 11.790,88.667 11.514,88.667 11.358 C 88.667 11.202,88.817 10.965,89.000 10.833 C 89.183 10.701,89.333 10.531,89.333 10.456 C 89.333 10.380,89.521 10.131,89.750 9.902 C 89.979 9.672,90.167 9.338,90.167 9.159 C 90.167 8.980,90.230 8.833,90.308 8.833 C 90.552 8.833,91.167 8.221,91.167 7.978 C 91.167 7.850,91.354 7.605,91.583 7.433 C 91.813 7.261,92.000 7.011,92.000 6.877 C 92.000 6.743,92.225 6.424,92.500 6.167 C 92.775 5.910,93.000 5.617,93.000 5.516 C 93.000 5.416,93.074 5.333,93.163 5.333 C 93.253 5.333,93.379 5.128,93.442 4.877 C 93.586 4.301,93.801 4.086,94.377 3.942 C 94.758 3.846,94.833 3.737,94.833 3.280 C 94.833 2.386,94.260 2.168,92.667 2.453 " stroke="none" fill="#fff" fill-rule="evenodd"/><path id="path1" d="M329.420 14.094 C 329.148 14.236,328.885 14.408,328.837 14.476 C 328.789 14.544,328.506 14.770,328.208 14.978 C 327.856 15.224,327.667 15.494,327.667 15.752 C 327.667 15.969,327.592 16.193,327.500 16.250 C 327.408 16.307,327.333 16.869,327.333 17.500 C 327.333 18.131,327.408 18.693,327.500 18.750 C 327.592 18.807,327.668 19.017,327.669 19.218 C 327.671 19.419,327.881 19.820,328.136 20.109 C 329.939 22.153,333.666 21.660,334.981 19.202 C 335.512 18.209,334.944 15.000,334.237 15.000 C 334.126 15.000,333.994 14.891,333.943 14.758 C 333.627 13.934,330.584 13.487,329.420 14.094 M116.402 15.750 C 116.344 15.979,116.230 16.167,116.149 16.167 C 116.067 16.167,116.000 16.425,116.000 16.740 C 116.000 17.056,115.925 17.360,115.833 17.417 C 115.742 17.473,115.667 17.703,115.667 17.927 C 115.667 18.150,115.609 18.333,115.539 18.333 C 115.339 18.333,114.830 19.628,114.628 20.651 C 114.527 21.164,114.396 21.621,114.338 21.667 C 114.084 21.866,113.500 23.374,113.500 23.832 C 113.500 24.108,113.425 24.333,113.333 24.333 C 113.242 24.333,113.166 24.465,113.166 24.625 C 113.166 24.785,112.978 25.286,112.749 25.737 C 112.521 26.188,112.333 26.806,112.333 27.112 C 112.333 27.417,112.258 27.667,112.167 27.667 C 112.075 27.667,112.000 27.817,112.000 28.000 C 112.000 28.183,111.925 28.333,111.833 28.333 C 111.742 28.333,111.666 28.465,111.666 28.625 C 111.665 28.785,111.553 29.131,111.416 29.394 C 111.279 29.657,111.167 30.083,111.167 30.343 C 111.167 30.602,111.092 30.860,111.000 30.917 C 110.908 30.973,110.833 31.165,110.833 31.343 C 110.833 31.521,110.767 31.667,110.686 31.667 C 110.605 31.667,110.495 31.798,110.442 31.958 C 110.389 32.119,110.238 32.533,110.108 32.879 C 109.977 33.224,109.820 33.843,109.758 34.254 C 109.697 34.664,109.595 35.001,109.531 35.001 C 109.370 35.003,109.000 35.839,109.000 36.200 C 109.000 36.365,108.925 36.500,108.833 36.500 C 108.742 36.500,108.667 36.716,108.667 36.981 C 108.667 37.245,108.555 37.677,108.418 37.939 C 108.281 38.202,108.168 38.548,108.168 38.708 C 108.167 38.869,108.092 39.000,108.000 39.000 C 107.908 39.000,107.833 39.188,107.833 39.417 C 107.833 39.646,107.758 39.833,107.667 39.833 C 107.575 39.833,107.500 40.096,107.500 40.417 C 107.500 40.737,107.425 41.000,107.333 41.000 C 107.242 41.000,107.167 41.114,107.167 41.252 C 107.167 41.391,107.101 41.635,107.020 41.794 C 106.581 42.663,106.333 43.400,106.333 43.839 C 106.333 44.111,106.258 44.333,106.167 44.333 C 106.075 44.333,106.000 44.483,106.000 44.667 C 106.000 44.850,105.925 45.000,105.833 45.000 C 105.742 45.000,105.667 45.188,105.667 45.417 C 105.667 45.646,105.610 45.833,105.541 45.833 C 105.388 45.833,105.050 46.878,104.900 47.815 C 104.840 48.192,104.725 48.500,104.645 48.500 C 104.565 48.500,104.500 48.650,104.500 48.833 C 104.500 49.017,104.425 49.167,104.333 49.167 C 104.242 49.167,104.167 49.317,104.167 49.500 C 104.167 49.683,104.092 49.833,104.000 49.833 C 103.908 49.833,103.833 50.091,103.833 50.407 C 103.833 50.722,103.765 51.023,103.681 51.074 C 103.597 51.126,103.478 51.468,103.417 51.834 C 103.355 52.200,103.236 52.500,103.152 52.500 C 103.068 52.500,103.000 52.650,103.000 52.833 C 103.000 53.017,102.925 53.167,102.833 53.167 C 102.742 53.167,102.667 53.387,102.667 53.656 C 102.667 54.300,103.160 54.376,106.868 54.304 C 109.936 54.245,110.149 54.168,110.161 53.123 C 110.164 52.869,110.236 52.532,110.320 52.373 C 110.795 51.475,111.187 50.396,111.277 49.743 C 111.333 49.334,111.443 49.000,111.523 49.000 C 111.602 49.000,111.667 48.813,111.667 48.583 C 111.667 48.354,111.742 48.167,111.833 48.167 C 111.925 48.167,112.000 48.068,112.000 47.948 C 112.000 47.828,112.140 47.434,112.310 47.073 C 112.481 46.712,112.662 46.154,112.712 45.833 C 112.763 45.512,112.884 45.043,112.982 44.790 L 113.160 44.330 120.262 44.373 L 127.364 44.417 127.612 45.083 C 127.840 45.697,127.963 46.130,128.262 47.375 C 128.323 47.627,128.438 47.833,128.519 47.833 C 128.600 47.833,128.667 47.979,128.667 48.157 C 128.667 48.335,128.742 48.527,128.833 48.583 C 128.925 48.640,129.000 48.832,129.000 49.010 C 129.000 49.188,129.065 49.333,129.143 49.333 C 129.222 49.333,129.333 49.727,129.390 50.207 C 129.447 50.688,129.570 51.107,129.664 51.138 C 129.757 51.169,129.833 51.323,129.833 51.481 C 129.833 51.842,130.209 52.664,130.375 52.665 C 130.444 52.666,130.500 52.969,130.500 53.337 C 130.500 53.904,130.566 54.033,130.928 54.171 C 131.394 54.348,136.477 54.396,137.302 54.231 C 137.807 54.130,138.183 53.644,137.843 53.531 C 137.746 53.499,137.667 53.375,137.667 53.255 C 137.667 53.136,137.555 52.823,137.418 52.561 C 137.281 52.298,137.168 51.957,137.168 51.802 C 137.167 51.646,137.092 51.473,137.000 51.417 C 136.908 51.360,136.833 51.130,136.833 50.905 C 136.833 50.680,136.747 50.328,136.641 50.123 C 136.236 49.341,136.167 49.164,136.167 48.919 C 136.167 48.780,136.107 48.667,136.033 48.667 C 135.960 48.667,135.760 48.104,135.589 47.417 C 135.418 46.729,135.215 46.167,135.139 46.167 C 135.062 46.167,135.000 46.032,135.000 45.867 C 135.000 45.494,134.627 44.670,134.458 44.668 C 134.390 44.667,134.333 44.409,134.333 44.093 C 134.333 43.778,134.258 43.473,134.167 43.417 C 134.075 43.360,134.000 43.187,133.999 43.032 C 133.998 42.877,133.886 42.535,133.749 42.273 C 133.612 42.010,133.500 41.691,133.500 41.564 C 133.500 41.437,133.425 41.333,133.333 41.333 C 133.242 41.333,133.167 41.071,133.167 40.750 C 133.167 40.429,133.092 40.167,133.000 40.167 C 132.908 40.167,132.833 39.992,132.833 39.778 C 132.833 39.564,132.780 39.335,132.715 39.270 C 132.508 39.063,132.000 37.599,132.000 37.208 C 132.000 37.002,131.925 36.833,131.833 36.833 C 131.742 36.833,131.667 36.686,131.667 36.505 C 131.667 36.325,131.519 35.915,131.339 35.594 C 131.159 35.274,130.892 34.547,130.745 33.980 C 130.461 32.883,129.854 31.453,129.633 31.361 C 129.560 31.331,129.500 31.016,129.500 30.663 C 129.500 30.309,129.433 29.978,129.352 29.928 C 129.270 29.878,129.154 29.630,129.092 29.377 C 128.931 28.709,128.605 28.000,128.459 28.000 C 128.390 28.000,128.333 27.774,128.333 27.498 C 128.333 27.221,128.265 26.865,128.181 26.706 C 127.835 26.050,127.500 25.183,127.500 24.943 C 127.500 24.802,127.425 24.640,127.333 24.583 C 127.242 24.527,127.167 24.296,127.167 24.071 C 127.167 23.846,127.097 23.532,127.011 23.373 C 126.925 23.214,126.757 22.840,126.637 22.542 C 126.517 22.244,126.362 22.000,126.293 22.000 C 126.223 22.000,126.167 21.869,126.167 21.708 C 126.169 21.234,125.307 18.667,125.147 18.667 C 125.066 18.667,125.000 18.484,125.000 18.260 C 125.000 18.036,124.925 17.807,124.833 17.750 C 124.742 17.693,124.667 17.463,124.667 17.238 C 124.667 17.013,124.592 16.699,124.500 16.539 C 124.408 16.380,124.260 16.044,124.171 15.792 L 124.008 15.333 120.257 15.333 L 116.506 15.333 116.402 15.750 M203.000 34.731 L 203.000 54.128 203.375 54.228 C 203.863 54.359,208.471 54.359,208.958 54.228 L 209.333 54.128 209.333 44.907 C 209.333 38.940,209.392 35.650,209.500 35.583 C 209.592 35.527,209.667 35.260,209.667 34.990 C 209.667 34.721,209.742 34.500,209.833 34.500 C 209.925 34.500,210.002 34.369,210.005 34.208 C 210.008 34.048,210.121 33.771,210.255 33.593 C 210.390 33.415,210.501 33.153,210.502 33.010 C 210.507 32.438,212.966 30.667,213.754 30.667 C 213.981 30.667,214.167 30.592,214.167 30.500 C 214.167 30.401,214.806 30.333,215.750 30.333 C 216.694 30.333,217.333 30.401,217.333 30.500 C 217.333 30.592,217.474 30.667,217.646 30.667 C 218.411 30.667,220.333 31.982,220.333 32.505 C 220.333 32.581,220.427 32.745,220.542 32.870 C 220.990 33.357,221.167 33.862,221.167 34.655 C 221.167 35.109,221.242 35.527,221.333 35.583 C 221.441 35.650,221.500 38.944,221.500 44.919 L 221.500 54.152 222.051 54.255 C 223.104 54.453,227.593 54.270,227.897 54.017 C 228.372 53.622,228.138 32.929,227.653 32.425 C 227.569 32.338,227.500 31.949,227.500 31.560 C 227.500 31.171,227.425 30.807,227.333 30.750 C 227.242 30.693,227.167 30.501,227.167 30.323 C 227.167 30.146,227.110 30.000,227.042 29.999 C 226.973 29.999,226.771 29.643,226.594 29.208 C 226.416 28.773,226.060 28.218,225.802 27.975 C 225.544 27.732,225.333 27.483,225.333 27.421 C 225.333 27.284,224.894 26.833,224.760 26.833 C 224.707 26.833,224.444 26.624,224.176 26.367 C 223.908 26.111,223.515 25.819,223.302 25.718 C 222.297 25.239,221.678 25.000,221.443 25.000 C 221.302 25.000,221.145 24.933,221.094 24.851 C 220.874 24.495,215.931 24.169,215.610 24.490 C 215.513 24.587,215.185 24.667,214.881 24.667 C 214.577 24.667,214.199 24.733,214.039 24.813 C 213.880 24.894,213.275 25.173,212.694 25.434 C 212.113 25.695,211.567 26.041,211.480 26.204 C 211.393 26.367,211.245 26.500,211.151 26.500 C 210.937 26.500,210.000 27.515,210.000 27.747 C 210.000 27.842,209.850 28.013,209.667 28.128 C 209.335 28.335,209.333 28.294,209.333 21.835 L 209.333 15.333 206.167 15.333 L 203.000 15.333 203.000 34.731 M314.833 34.731 L 314.833 54.128 315.208 54.228 C 315.705 54.361,320.315 54.362,320.979 54.229 L 321.500 54.125 321.500 34.729 L 321.500 15.333 318.167 15.333 L 314.833 15.333 314.833 34.731 M370.833 34.747 L 370.833 54.160 371.225 54.259 C 372.018 54.458,376.934 54.263,377.225 54.021 C 377.469 53.818,377.500 53.233,377.500 48.751 L 377.500 43.709 378.421 42.813 C 379.426 41.836,379.667 41.685,379.667 42.035 C 379.667 42.161,379.929 42.542,380.250 42.882 C 380.571 43.222,380.833 43.566,380.833 43.647 C 380.833 43.727,380.954 43.892,381.101 44.015 C 381.248 44.137,381.673 44.690,382.046 45.243 C 382.419 45.797,382.824 46.310,382.945 46.383 C 383.067 46.457,383.167 46.587,383.167 46.673 C 383.167 46.841,383.519 47.303,384.125 47.930 C 384.331 48.144,384.501 48.378,384.503 48.451 C 384.505 48.524,384.767 48.883,385.087 49.248 C 385.406 49.614,385.667 49.991,385.667 50.086 C 385.667 50.182,385.817 50.368,386.000 50.500 C 386.183 50.632,386.333 50.828,386.333 50.936 C 386.333 51.043,386.446 51.174,386.583 51.227 C 386.721 51.280,386.833 51.410,386.833 51.516 C 386.833 51.623,387.100 52.019,387.425 52.396 C 388.218 53.317,388.333 53.468,388.333 53.588 C 388.333 54.190,393.766 54.663,395.958 54.253 C 396.627 54.128,396.702 53.530,396.125 52.923 C 395.919 52.706,395.566 52.223,395.342 51.848 C 395.118 51.474,394.799 51.125,394.634 51.073 C 394.468 51.020,394.333 50.837,394.333 50.665 C 394.333 50.494,394.260 50.308,394.170 50.252 C 394.029 50.165,393.207 49.107,392.083 47.565 C 391.900 47.313,391.506 46.814,391.208 46.455 C 390.910 46.096,390.667 45.737,390.667 45.658 C 390.667 45.464,389.857 44.667,389.659 44.667 C 389.572 44.667,389.500 44.549,389.500 44.406 C 389.500 44.177,388.905 43.262,388.417 42.738 C 388.325 42.640,388.063 42.284,387.833 41.947 C 387.604 41.611,387.360 41.335,387.292 41.334 C 387.223 41.334,387.167 41.236,387.167 41.117 C 387.167 40.998,386.907 40.642,386.589 40.325 C 386.271 40.009,386.008 39.667,386.005 39.566 C 386.002 39.465,385.775 39.147,385.500 38.860 C 385.225 38.572,385.000 38.261,385.000 38.168 C 385.000 38.076,384.933 38.000,384.851 38.000 C 384.411 38.000,384.578 37.439,385.215 36.780 C 385.601 36.380,386.723 35.220,387.708 34.201 C 388.694 33.182,389.500 32.311,389.500 32.264 C 389.500 32.218,390.081 31.591,390.792 30.873 C 394.827 26.789,395.685 25.795,395.633 25.263 L 395.583 24.750 392.020 24.705 L 388.456 24.660 387.561 25.569 C 387.069 26.069,386.666 26.539,386.666 26.614 C 386.666 26.689,386.441 26.900,386.167 27.083 C 385.892 27.267,385.667 27.548,385.667 27.708 C 385.667 27.869,385.592 28.000,385.501 28.000 C 385.249 28.000,384.500 28.699,384.500 28.935 C 384.500 29.050,384.350 29.192,384.167 29.250 C 383.983 29.308,383.627 29.631,383.375 29.967 C 383.123 30.304,382.317 31.184,381.583 31.923 C 380.850 32.663,379.762 33.824,379.167 34.505 C 377.759 36.112,377.708 36.167,377.595 36.167 C 377.543 36.167,377.500 31.569,377.500 25.950 C 377.500 18.226,377.451 15.685,377.300 15.533 C 377.159 15.392,376.181 15.333,373.967 15.333 L 370.833 15.333 370.833 34.747 M120.500 24.323 C 120.500 24.501,120.575 24.693,120.667 24.750 C 120.758 24.807,120.833 25.107,120.833 25.417 C 120.833 25.727,120.908 26.027,121.000 26.083 C 121.092 26.140,121.167 26.313,121.168 26.468 C 121.168 26.623,121.281 26.965,121.418 27.227 C 121.555 27.490,121.667 27.809,121.667 27.936 C 121.667 28.063,121.742 28.167,121.833 28.167 C 121.925 28.167,122.000 28.462,122.000 28.823 C 122.000 29.185,122.075 29.527,122.167 29.583 C 122.258 29.640,122.333 29.826,122.333 29.996 C 122.333 30.166,122.390 30.331,122.458 30.361 C 122.612 30.429,123.167 32.026,123.167 32.400 C 123.167 32.549,123.253 32.839,123.359 33.044 C 123.764 33.826,123.833 34.003,123.833 34.248 C 123.833 34.386,123.890 34.500,123.959 34.500 C 124.112 34.500,124.500 35.695,124.500 36.165 C 124.500 36.350,124.688 36.890,124.917 37.365 C 125.146 37.840,125.333 38.290,125.333 38.365 C 125.333 38.439,123.053 38.500,120.266 38.500 L 115.198 38.500 115.293 38.125 C 115.345 37.919,115.432 37.712,115.485 37.667 C 115.655 37.523,116.031 36.445,116.154 35.750 C 116.219 35.383,116.406 34.783,116.570 34.417 C 116.733 34.050,116.943 33.563,117.036 33.333 C 117.129 33.104,117.272 32.786,117.353 32.627 C 117.434 32.468,117.500 32.189,117.500 32.008 C 117.500 31.826,117.623 31.394,117.773 31.047 C 117.923 30.700,118.120 30.229,118.209 30.000 C 118.299 29.771,118.438 29.453,118.519 29.294 C 118.600 29.135,118.667 28.830,118.667 28.617 C 118.667 28.404,118.819 27.915,119.004 27.530 C 119.190 27.146,119.387 26.605,119.443 26.329 C 119.498 26.053,119.608 25.786,119.688 25.737 C 119.768 25.687,119.833 25.389,119.833 25.073 C 119.833 24.758,119.908 24.500,120.000 24.500 C 120.092 24.500,120.167 24.387,120.167 24.250 C 120.167 24.113,120.242 24.000,120.333 24.000 C 120.425 24.000,120.500 24.146,120.500 24.323 M154.583 24.500 C 154.527 24.592,154.189 24.667,153.833 24.667 C 153.477 24.667,153.140 24.742,153.083 24.833 C 153.027 24.925,152.861 25.000,152.715 25.000 C 152.283 25.000,150.617 25.870,150.167 26.330 C 149.938 26.564,149.540 26.890,149.284 27.053 C 149.028 27.217,148.728 27.553,148.618 27.800 C 148.439 28.199,148.411 28.081,148.368 26.756 C 148.298 24.617,148.382 24.667,144.840 24.667 L 142.000 24.667 142.000 39.399 C 142.000 52.679,142.026 54.141,142.264 54.232 C 142.697 54.398,147.610 54.347,148.072 54.171 L 148.500 54.008 148.500 45.221 C 148.500 36.805,148.645 33.667,149.033 33.667 C 149.107 33.667,149.167 33.587,149.167 33.490 C 149.167 32.745,151.616 30.667,152.495 30.667 C 152.670 30.667,152.860 30.592,152.917 30.500 C 152.973 30.408,153.686 30.333,154.500 30.333 C 155.314 30.333,156.027 30.408,156.083 30.500 C 156.140 30.592,156.320 30.667,156.484 30.667 C 157.381 30.667,159.500 32.534,159.500 33.325 C 159.500 33.502,159.575 33.693,159.667 33.750 C 159.758 33.807,159.833 34.032,159.833 34.250 C 159.833 34.468,159.908 34.693,160.000 34.750 C 160.108 34.817,160.167 38.245,160.167 44.490 L 160.167 54.128 160.542 54.228 C 161.034 54.360,165.806 54.358,166.299 54.226 L 166.682 54.124 166.633 43.153 C 166.594 34.653,166.536 32.136,166.375 31.975 C 166.260 31.860,166.167 31.599,166.167 31.393 C 166.167 31.188,166.092 30.973,166.000 30.917 C 165.908 30.860,165.833 30.646,165.833 30.440 C 165.833 30.009,165.476 29.170,165.292 29.168 C 165.223 29.167,165.167 29.054,165.167 28.917 C 165.167 28.779,165.097 28.667,165.011 28.667 C 164.926 28.667,164.808 28.516,164.749 28.331 C 164.530 27.641,162.065 25.509,161.470 25.495 C 161.349 25.492,161.104 25.379,160.926 25.245 C 160.749 25.110,160.434 25.000,160.228 25.000 C 160.022 25.000,159.807 24.925,159.750 24.833 C 159.693 24.742,159.393 24.667,159.083 24.667 C 158.773 24.667,158.473 24.592,158.417 24.500 C 158.358 24.405,157.529 24.333,156.500 24.333 C 155.471 24.333,154.642 24.405,154.583 24.500 M183.417 24.500 C 183.360 24.592,183.023 24.667,182.667 24.667 C 182.311 24.667,181.973 24.742,181.917 24.833 C 181.860 24.925,181.649 25.000,181.448 25.001 C 181.248 25.002,180.869 25.114,180.606 25.251 C 180.343 25.388,180.040 25.500,179.931 25.500 C 179.639 25.500,178.836 25.897,178.835 26.042 C 178.834 26.110,178.721 26.167,178.585 26.167 C 178.448 26.167,178.242 26.317,178.128 26.500 C 178.013 26.683,177.805 26.833,177.665 26.833 C 177.524 26.833,177.224 27.023,176.996 27.255 C 176.769 27.488,176.438 27.806,176.261 27.964 C 176.084 28.121,175.784 28.427,175.594 28.642 C 175.405 28.858,175.119 29.177,174.958 29.351 C 174.798 29.525,174.667 29.730,174.667 29.808 C 174.667 29.885,174.517 30.084,174.333 30.250 C 174.150 30.416,174.000 30.693,174.000 30.866 C 174.000 31.039,173.845 31.346,173.655 31.549 C 173.466 31.751,173.269 32.123,173.218 32.375 C 173.167 32.627,173.059 32.833,172.979 32.833 C 172.899 32.833,172.833 33.171,172.833 33.583 C 172.833 33.996,172.758 34.333,172.667 34.333 C 172.575 34.333,172.500 34.506,172.500 34.717 C 172.500 34.927,172.432 35.171,172.349 35.258 C 171.985 35.642,171.662 42.062,171.992 42.392 C 172.088 42.488,172.167 42.885,172.167 43.273 C 172.167 43.662,172.242 44.027,172.333 44.083 C 172.425 44.140,172.500 44.365,172.500 44.583 C 172.500 44.802,172.575 45.027,172.667 45.083 C 172.758 45.140,172.833 45.444,172.833 45.760 C 172.833 46.075,172.908 46.333,173.000 46.333 C 173.092 46.333,173.167 46.491,173.167 46.683 C 173.167 47.042,173.652 48.040,173.875 48.139 C 173.944 48.169,174.000 48.319,174.000 48.472 C 174.000 48.713,174.193 48.999,174.997 49.951 C 175.090 50.062,175.166 50.212,175.166 50.285 C 175.164 50.489,177.346 52.482,177.692 52.592 C 177.862 52.645,178.000 52.759,178.000 52.845 C 178.000 52.930,178.082 53.000,178.183 53.000 C 178.283 53.000,178.564 53.139,178.808 53.309 C 179.051 53.478,179.625 53.747,180.083 53.907 C 180.542 54.066,181.047 54.265,181.206 54.348 C 181.365 54.432,181.717 54.500,181.988 54.500 C 182.259 54.500,182.527 54.575,182.583 54.667 C 182.646 54.768,183.887 54.833,185.750 54.833 C 187.613 54.833,188.854 54.768,188.917 54.667 C 188.973 54.575,189.188 54.500,189.393 54.500 C 189.599 54.500,189.838 54.438,189.925 54.362 C 190.012 54.285,190.550 54.087,191.120 53.920 C 191.691 53.753,192.291 53.497,192.454 53.350 C 192.617 53.203,192.968 52.971,193.234 52.833 C 193.964 52.457,195.747 50.649,196.079 49.950 C 196.240 49.611,196.438 49.333,196.519 49.333 C 196.600 49.333,196.667 49.221,196.667 49.083 C 196.667 48.946,196.727 48.833,196.800 48.833 C 196.974 48.833,197.291 47.933,197.432 47.038 C 197.493 46.646,197.609 46.286,197.689 46.236 C 197.768 46.187,197.833 45.739,197.833 45.240 L 197.833 44.333 194.667 44.333 C 191.643 44.333,191.500 44.348,191.500 44.657 C 191.500 44.835,191.431 45.023,191.346 45.075 C 191.262 45.128,191.140 45.410,191.075 45.702 C 190.916 46.429,190.399 47.178,189.717 47.671 C 189.403 47.898,189.044 48.177,188.919 48.292 C 188.793 48.406,188.577 48.500,188.438 48.500 C 188.300 48.500,188.140 48.575,188.083 48.667 C 188.027 48.758,187.835 48.833,187.657 48.833 C 187.479 48.833,187.333 48.908,187.333 49.000 C 187.333 49.099,186.721 49.167,185.831 49.167 C 185.005 49.167,184.180 49.092,183.998 49.000 C 183.816 48.908,183.518 48.758,183.336 48.667 C 183.154 48.575,182.924 48.500,182.824 48.500 C 182.335 48.500,180.587 46.885,180.143 46.023 C 180.019 45.781,179.880 45.546,179.834 45.500 C 179.592 45.259,179.167 44.092,179.167 43.671 C 179.167 43.404,179.092 43.140,179.000 43.083 C 178.908 43.027,178.833 42.685,178.833 42.323 C 178.833 41.962,178.758 41.667,178.667 41.667 C 178.564 41.667,178.500 40.864,178.500 39.593 C 178.500 38.391,178.570 37.476,178.667 37.417 C 178.758 37.360,178.833 37.060,178.833 36.750 C 178.833 36.440,178.908 36.140,179.000 36.083 C 179.092 36.027,179.167 35.755,179.167 35.481 C 179.167 35.206,179.366 34.629,179.609 34.199 C 179.853 33.769,180.139 33.253,180.246 33.054 C 180.552 32.481,182.015 31.173,182.662 30.893 C 182.985 30.753,183.380 30.570,183.539 30.486 C 183.699 30.402,184.013 30.333,184.238 30.333 C 184.463 30.333,184.693 30.258,184.750 30.167 C 184.807 30.075,185.219 30.000,185.667 30.000 C 186.114 30.000,186.527 30.075,186.583 30.167 C 186.640 30.258,186.888 30.333,187.135 30.333 C 188.124 30.332,191.000 32.516,191.000 33.269 C 191.000 33.395,191.130 33.798,191.289 34.166 L 191.579 34.833 194.706 34.833 L 197.833 34.833 197.833 34.000 C 197.833 33.542,197.769 33.167,197.690 33.167 C 197.611 33.167,197.501 32.783,197.445 32.314 C 197.334 31.375,196.774 30.067,196.303 29.647 C 196.136 29.499,196.000 29.300,196.000 29.205 C 196.000 28.940,194.307 27.164,193.807 26.905 C 193.564 26.778,193.263 26.579,193.138 26.462 C 192.594 25.954,190.305 25.000,189.631 25.000 C 189.467 25.000,189.333 24.925,189.333 24.833 C 189.333 24.742,189.000 24.667,188.593 24.667 C 188.186 24.667,187.807 24.592,187.750 24.500 C 187.690 24.403,186.779 24.333,185.583 24.333 C 184.387 24.333,183.476 24.403,183.417 24.500 M244.750 24.500 C 244.693 24.592,244.356 24.667,244.000 24.667 C 243.644 24.667,243.307 24.742,243.250 24.833 C 243.193 24.925,242.983 25.000,242.782 25.001 C 242.581 25.002,242.202 25.114,241.939 25.251 C 241.677 25.388,241.360 25.500,241.236 25.500 C 240.917 25.500,239.799 26.132,239.495 26.483 C 239.355 26.646,239.034 26.831,238.780 26.894 C 238.526 26.958,238.270 27.139,238.211 27.297 C 238.073 27.659,237.828 27.906,237.468 28.042 C 237.313 28.101,237.052 28.359,236.888 28.616 C 236.724 28.873,236.382 29.282,236.128 29.525 C 235.874 29.768,235.667 30.061,235.667 30.176 C 235.667 30.291,235.479 30.631,235.250 30.931 C 235.021 31.232,234.833 31.595,234.833 31.739 C 234.833 31.882,234.758 32.000,234.667 32.000 C 234.575 32.000,234.500 32.189,234.500 32.419 C 234.500 32.649,234.434 32.968,234.353 33.127 C 234.195 33.438,234.000 33.904,233.642 34.833 C 233.089 36.267,233.397 44.681,234.029 45.408 C 234.105 45.495,234.167 45.739,234.167 45.950 C 234.167 46.161,234.242 46.333,234.333 46.333 C 234.425 46.333,234.506 46.540,234.513 46.792 C 234.520 47.044,234.742 47.587,235.005 48.000 C 235.268 48.413,235.602 48.981,235.747 49.263 C 236.656 51.031,240.235 53.774,242.042 54.087 C 242.385 54.147,242.667 54.264,242.667 54.348 C 242.667 54.432,242.925 54.500,243.240 54.500 C 243.556 54.500,243.860 54.575,243.917 54.667 C 243.979 54.768,245.193 54.833,247.000 54.833 C 248.807 54.833,250.021 54.768,250.083 54.667 C 250.140 54.575,250.402 54.500,250.667 54.500 C 250.931 54.500,251.189 54.432,251.241 54.348 C 251.293 54.264,251.634 54.145,252.000 54.083 C 252.366 54.022,252.707 53.903,252.759 53.819 C 252.811 53.735,252.968 53.667,253.108 53.667 C 254.296 53.667,258.082 49.928,259.016 47.833 C 259.282 47.237,259.575 46.620,259.666 46.461 C 259.758 46.301,259.833 46.058,259.833 45.919 C 259.833 45.780,259.908 45.667,260.000 45.667 C 260.092 45.667,260.167 45.344,260.167 44.950 C 260.167 44.556,260.234 44.162,260.316 44.075 C 260.689 43.681,261.014 37.281,260.678 36.945 C 260.580 36.847,260.500 36.449,260.500 36.060 C 260.500 35.671,260.425 35.307,260.333 35.250 C 260.242 35.193,260.167 34.913,260.167 34.627 C 260.167 34.139,259.855 33.019,259.668 32.833 C 259.514 32.681,259.000 31.492,258.999 31.286 C 258.997 30.707,255.538 26.833,255.024 26.833 C 254.917 26.833,254.613 26.625,254.346 26.371 C 253.855 25.901,252.194 25.201,251.208 25.048 C 250.910 25.001,250.667 24.897,250.667 24.815 C 250.667 24.733,250.334 24.667,249.927 24.667 C 249.519 24.667,249.140 24.592,249.083 24.500 C 249.024 24.403,248.113 24.333,246.917 24.333 C 245.721 24.333,244.810 24.403,244.750 24.500 M277.583 24.500 C 277.527 24.592,277.264 24.667,277.000 24.667 C 276.736 24.667,276.473 24.742,276.417 24.833 C 276.360 24.925,276.177 25.000,276.011 25.000 C 275.844 25.000,275.614 25.113,275.500 25.250 C 275.386 25.387,275.184 25.500,275.051 25.500 C 274.918 25.500,274.710 25.594,274.589 25.708 C 274.467 25.823,274.023 26.211,273.601 26.571 C 273.179 26.932,272.833 27.293,272.833 27.375 C 272.833 27.457,272.721 27.636,272.583 27.774 C 272.361 27.996,272.333 27.860,272.331 26.554 C 272.327 24.521,272.557 24.651,269.071 24.704 L 266.083 24.750 266.041 39.439 L 265.998 54.127 266.374 54.228 C 266.863 54.359,271.637 54.359,272.125 54.228 L 272.500 54.128 272.500 44.812 C 272.500 39.688,272.566 35.365,272.646 35.206 C 273.258 33.992,273.500 33.440,273.500 33.261 C 273.500 32.779,275.850 31.000,276.487 31.000 C 276.667 31.000,276.860 30.925,276.917 30.833 C 277.067 30.591,280.927 30.619,281.322 30.865 C 281.571 31.020,281.696 31.016,281.903 30.845 C 282.243 30.562,282.300 24.867,281.967 24.533 C 281.716 24.283,277.736 24.253,277.583 24.500 M295.417 24.500 C 295.360 24.592,295.055 24.667,294.738 24.667 C 294.421 24.667,294.032 24.731,293.873 24.810 C 293.714 24.889,293.171 25.080,292.667 25.236 C 291.446 25.612,290.300 26.179,290.032 26.540 C 289.912 26.701,289.711 26.833,289.584 26.833 C 289.346 26.833,287.333 28.691,287.333 28.911 C 287.333 28.979,287.146 29.183,286.917 29.363 C 286.688 29.543,286.500 29.835,286.500 30.012 C 286.500 30.189,286.438 30.333,286.361 30.333 C 286.285 30.333,286.117 30.540,285.986 30.792 C 285.856 31.044,285.656 31.349,285.542 31.470 C 285.427 31.591,285.333 31.948,285.333 32.262 C 285.333 32.576,285.277 32.833,285.207 32.833 C 285.138 32.833,284.983 33.077,284.863 33.375 C 284.743 33.673,284.575 34.047,284.489 34.206 C 284.403 34.365,284.333 34.680,284.333 34.905 C 284.333 35.130,284.258 35.360,284.167 35.417 C 284.063 35.481,284.000 37.039,284.000 39.540 C 284.000 43.334,284.079 44.165,284.520 45.039 C 284.601 45.199,284.667 45.480,284.667 45.664 C 284.667 45.849,284.742 46.000,284.833 46.000 C 284.925 46.000,285.000 46.150,285.000 46.333 C 285.000 46.517,285.075 46.667,285.167 46.667 C 285.258 46.667,285.333 46.858,285.333 47.091 C 285.333 47.325,285.596 47.926,285.917 48.428 C 286.237 48.929,286.500 49.409,286.500 49.494 C 286.500 49.578,286.633 49.746,286.795 49.866 C 286.957 49.985,287.233 50.308,287.408 50.583 C 287.781 51.167,287.839 51.225,288.850 52.045 C 289.272 52.387,289.707 52.667,289.816 52.667 C 289.926 52.667,290.203 52.855,290.433 53.085 C 290.898 53.550,291.710 53.930,292.587 54.095 C 292.906 54.155,293.167 54.270,293.167 54.352 C 293.167 54.433,293.425 54.500,293.740 54.500 C 294.056 54.500,294.360 54.575,294.417 54.667 C 294.479 54.768,295.752 54.833,297.677 54.833 C 299.670 54.833,300.833 54.772,300.833 54.667 C 300.833 54.575,301.054 54.500,301.323 54.500 C 301.593 54.500,301.855 54.434,301.905 54.352 C 301.955 54.271,302.259 54.155,302.579 54.095 C 303.186 53.981,304.542 53.342,304.639 53.125 C 304.669 53.056,304.801 53.000,304.931 53.000 C 305.060 53.000,305.167 52.930,305.167 52.845 C 305.167 52.759,305.300 52.647,305.463 52.595 C 305.866 52.467,307.322 51.051,307.833 50.289 C 308.063 49.948,308.306 49.668,308.375 49.668 C 308.444 49.667,308.500 49.559,308.500 49.427 C 308.500 49.295,308.740 48.751,309.033 48.219 C 309.490 47.387,309.576 47.043,309.637 45.792 L 309.707 44.333 306.615 44.333 C 303.198 44.333,303.496 44.232,303.246 45.473 C 303.184 45.779,302.935 46.259,302.692 46.539 C 301.661 47.729,300.800 48.500,300.503 48.500 C 300.329 48.500,300.140 48.575,300.083 48.667 C 300.027 48.758,299.797 48.833,299.573 48.833 C 299.350 48.833,299.167 48.908,299.167 49.000 C 299.167 49.099,298.559 49.167,297.677 49.167 C 296.857 49.167,296.140 49.092,296.083 49.000 C 296.027 48.908,295.797 48.833,295.573 48.833 C 295.350 48.833,295.167 48.758,295.167 48.667 C 295.167 48.575,295.014 48.500,294.826 48.500 C 294.639 48.500,294.395 48.424,294.285 48.330 C 293.414 47.595,293.066 47.334,292.958 47.334 C 292.890 47.333,292.833 47.230,292.833 47.103 C 292.833 46.976,292.621 46.658,292.362 46.395 C 292.103 46.132,291.759 45.542,291.599 45.083 C 291.278 44.165,291.038 43.568,290.814 43.127 C 290.733 42.968,290.667 42.616,290.667 42.345 C 290.667 42.075,290.592 41.807,290.500 41.750 C 290.403 41.690,290.333 40.779,290.333 39.583 C 290.333 38.387,290.403 37.476,290.500 37.417 C 290.592 37.360,290.667 37.056,290.667 36.740 C 290.667 36.425,290.742 36.167,290.833 36.167 C 290.925 36.167,291.000 36.031,291.000 35.865 C 291.000 35.699,291.150 35.252,291.333 34.873 C 291.517 34.493,291.667 34.079,291.667 33.952 C 291.667 33.422,293.751 31.298,294.667 30.895 C 294.987 30.754,295.380 30.570,295.539 30.486 C 295.699 30.402,295.975 30.333,296.155 30.333 C 296.334 30.333,296.527 30.258,296.583 30.167 C 296.640 30.075,297.132 30.000,297.677 30.000 C 298.226 30.000,298.667 30.074,298.667 30.167 C 298.667 30.258,298.929 30.333,299.250 30.333 C 299.571 30.333,299.833 30.408,299.833 30.500 C 299.833 30.592,299.948 30.667,300.089 30.667 C 300.631 30.667,301.794 31.631,302.502 32.667 C 302.721 32.987,302.953 33.287,303.016 33.333 C 303.080 33.379,303.218 33.735,303.323 34.125 L 303.513 34.833 306.613 34.833 L 309.713 34.833 309.629 33.375 C 309.565 32.271,309.452 31.755,309.163 31.250 C 308.954 30.883,308.625 30.285,308.433 29.921 C 307.861 28.837,306.008 26.837,305.573 26.834 C 305.476 26.834,305.236 26.685,305.041 26.503 C 304.517 26.015,303.709 25.607,302.583 25.264 C 302.033 25.096,301.453 24.893,301.294 24.813 C 301.135 24.732,300.745 24.667,300.429 24.667 C 300.112 24.667,299.807 24.592,299.750 24.500 C 299.690 24.403,298.779 24.333,297.583 24.333 C 296.387 24.333,295.476 24.403,295.417 24.500 M351.167 24.500 C 351.029 24.589,350.677 24.663,350.385 24.664 C 350.092 24.666,349.807 24.742,349.750 24.833 C 349.693 24.925,349.483 25.000,349.282 25.001 C 349.081 25.002,348.702 25.114,348.439 25.251 C 348.177 25.388,347.873 25.500,347.764 25.500 C 347.472 25.500,346.669 25.897,346.668 26.042 C 346.667 26.110,346.533 26.167,346.370 26.167 C 346.207 26.167,345.965 26.317,345.833 26.500 C 345.701 26.683,345.501 26.833,345.388 26.833 C 344.990 26.833,342.173 29.866,342.169 30.299 C 342.168 30.417,342.017 30.675,341.833 30.872 C 341.650 31.069,341.500 31.328,341.500 31.448 C 341.500 31.568,341.436 31.667,341.359 31.667 C 341.199 31.667,340.667 33.211,340.667 33.676 C 340.667 33.843,340.592 34.027,340.500 34.083 C 340.408 34.140,340.333 34.407,340.333 34.677 C 340.333 34.946,340.258 35.167,340.167 35.167 C 340.075 35.167,340.000 35.462,340.000 35.823 C 340.000 36.185,339.925 36.527,339.833 36.583 C 339.732 36.646,339.667 37.860,339.667 39.667 C 339.667 41.474,339.732 42.688,339.833 42.750 C 339.925 42.807,340.000 43.186,340.000 43.593 C 340.000 44.000,340.075 44.333,340.167 44.333 C 340.258 44.333,340.333 44.521,340.333 44.750 C 340.333 44.979,340.408 45.167,340.500 45.167 C 340.592 45.167,340.667 45.346,340.667 45.564 C 340.667 46.137,341.167 47.603,341.482 47.952 C 341.630 48.116,341.929 48.602,342.147 49.033 C 342.365 49.464,342.721 49.983,342.938 50.187 C 343.156 50.391,343.333 50.658,343.333 50.779 C 343.333 50.901,343.399 51.000,343.479 51.000 C 343.558 51.000,344.011 51.375,344.484 51.833 C 344.957 52.292,345.454 52.667,345.589 52.667 C 345.723 52.667,345.833 52.730,345.833 52.808 C 345.833 53.006,347.801 53.977,348.462 54.104 C 348.762 54.162,349.047 54.275,349.097 54.355 C 349.146 54.435,349.444 54.500,349.760 54.500 C 350.075 54.500,350.333 54.575,350.333 54.667 C 350.333 54.903,356.064 54.884,356.822 54.646 C 357.149 54.543,357.547 54.393,357.706 54.313 C 357.865 54.232,358.128 54.166,358.289 54.166 C 358.451 54.165,358.798 54.053,359.061 53.916 C 359.323 53.779,359.628 53.667,359.738 53.667 C 359.847 53.667,360.098 53.517,360.295 53.333 C 360.492 53.150,360.696 53.000,360.750 53.000 C 361.257 53.000,364.167 50.120,364.167 49.618 C 364.167 49.498,364.235 49.329,364.319 49.242 C 364.771 48.774,365.333 47.383,365.333 46.735 C 365.333 46.342,365.408 45.973,365.500 45.917 C 365.592 45.860,365.667 45.481,365.667 45.073 L 365.667 44.333 362.542 44.335 L 359.417 44.336 359.208 44.785 C 359.094 45.031,359.000 45.405,359.000 45.615 C 359.000 46.273,356.884 48.500,356.259 48.500 C 356.127 48.500,355.973 48.575,355.917 48.667 C 355.860 48.758,355.668 48.833,355.490 48.833 C 355.312 48.833,355.167 48.908,355.167 49.000 C 355.167 49.099,354.555 49.167,353.664 49.167 C 352.838 49.167,352.013 49.092,351.831 49.000 C 351.649 48.908,351.351 48.758,351.169 48.667 C 350.987 48.575,350.687 48.500,350.502 48.500 C 350.318 48.500,350.167 48.444,350.166 48.375 C 350.166 48.306,349.830 48.025,349.419 47.750 C 349.008 47.475,348.632 47.132,348.584 46.988 C 348.536 46.843,348.366 46.577,348.206 46.396 C 347.928 46.080,347.668 45.667,347.353 45.042 C 347.175 44.688,346.838 43.451,346.718 42.707 C 346.669 42.408,346.563 42.122,346.482 42.072 C 346.400 42.022,346.333 40.902,346.333 39.583 C 346.333 38.265,346.400 37.145,346.482 37.095 C 346.563 37.044,346.670 36.759,346.719 36.460 C 347.199 33.550,349.027 31.302,351.583 30.480 C 351.950 30.362,352.321 30.206,352.408 30.133 C 352.637 29.941,354.295 29.969,354.417 30.167 C 354.473 30.258,354.725 30.333,354.977 30.333 C 355.228 30.333,355.505 30.396,355.592 30.473 C 355.679 30.550,356.012 30.715,356.333 30.838 C 357.304 31.213,358.995 33.128,359.005 33.864 C 359.018 34.787,359.187 34.833,362.560 34.833 L 365.667 34.833 365.667 34.177 C 365.667 33.815,365.592 33.473,365.500 33.417 C 365.408 33.360,365.333 32.943,365.333 32.490 C 365.333 32.037,365.258 31.667,365.167 31.667 C 365.075 31.667,365.000 31.549,365.000 31.404 C 365.000 30.606,362.085 26.833,361.468 26.833 C 361.369 26.833,361.168 26.701,361.020 26.539 C 360.677 26.164,359.512 25.599,358.333 25.236 C 357.829 25.080,357.286 24.889,357.127 24.810 C 356.968 24.731,356.579 24.667,356.262 24.667 C 355.945 24.667,355.640 24.592,355.583 24.500 C 355.450 24.284,351.500 24.284,351.167 24.500 M327.934 24.930 C 327.620 25.749,327.834 53.989,328.156 54.161 C 328.504 54.347,333.117 54.402,333.979 54.229 L 334.500 54.125 334.500 39.623 C 334.500 26.006,334.482 25.107,334.208 24.899 C 333.741 24.544,328.072 24.572,327.934 24.930 M248.250 30.167 C 248.307 30.258,248.485 30.333,248.645 30.333 C 249.520 30.333,252.667 32.711,252.667 33.372 C 252.667 33.515,252.856 33.918,253.685 35.539 C 253.767 35.699,253.833 36.163,253.833 36.571 C 253.833 36.980,253.908 37.360,254.000 37.417 C 254.097 37.476,254.167 38.387,254.167 39.583 C 254.167 40.779,254.097 41.690,254.000 41.750 C 253.908 41.807,253.833 42.257,253.833 42.750 C 253.833 43.243,253.758 43.693,253.667 43.750 C 253.575 43.807,253.500 44.036,253.500 44.260 C 253.500 44.484,253.426 44.667,253.337 44.667 C 253.247 44.667,253.126 44.854,253.068 45.083 C 253.011 45.313,252.897 45.500,252.815 45.500 C 252.734 45.500,252.667 45.637,252.667 45.805 C 252.667 46.318,250.841 48.109,249.917 48.504 C 249.458 48.700,248.953 48.929,248.794 49.014 C 248.635 49.098,248.208 49.167,247.845 49.167 C 247.483 49.167,247.136 49.248,247.074 49.348 C 246.994 49.478,246.912 49.478,246.781 49.348 C 246.682 49.248,246.282 49.167,245.893 49.167 C 245.504 49.167,245.140 49.092,245.083 49.000 C 245.027 48.908,244.835 48.833,244.657 48.833 C 244.479 48.833,244.333 48.758,244.333 48.667 C 244.333 48.575,244.184 48.500,244.001 48.500 C 243.819 48.500,243.500 48.355,243.293 48.177 C 243.086 47.999,242.736 47.698,242.515 47.509 C 242.294 47.319,242.031 47.026,241.931 46.856 C 241.832 46.686,241.544 46.238,241.292 45.860 C 241.040 45.483,240.833 45.026,240.833 44.846 C 240.833 44.667,240.758 44.473,240.667 44.417 C 240.575 44.360,240.500 44.131,240.500 43.907 C 240.500 43.683,240.425 43.500,240.333 43.500 C 240.242 43.500,240.167 43.290,240.167 43.033 C 240.167 42.777,240.081 42.481,239.977 42.377 C 239.853 42.253,239.788 41.327,239.788 39.667 C 239.788 38.006,239.853 37.081,239.977 36.956 C 240.081 36.852,240.167 36.599,240.167 36.393 C 240.167 36.188,240.242 35.973,240.333 35.917 C 240.425 35.860,240.500 35.635,240.500 35.417 C 240.500 35.198,240.575 34.973,240.667 34.917 C 240.758 34.860,240.833 34.667,240.833 34.487 C 240.833 34.148,241.609 32.792,241.858 32.694 C 241.936 32.664,242.000 32.568,242.000 32.481 C 242.000 32.120,243.939 30.667,244.421 30.667 C 244.556 30.667,244.667 30.592,244.667 30.500 C 244.667 30.408,244.887 30.333,245.157 30.333 C 245.426 30.333,245.693 30.258,245.750 30.167 C 245.807 30.075,246.369 30.000,247.000 30.000 C 247.631 30.000,248.193 30.075,248.250 30.167 " stroke="none" fill="#fff" fill-rule="evenodd"/><path id="path2" d="" stroke="none" fill="#202cf0" fill-rule="evenodd"/><path id="path3" d="" stroke="none" fill="#202c40" fill-rule="evenodd"/><path id="path4" d="" stroke="none" fill="#203004" fill-rule="evenodd"/></g></svg>